<svg width="134" height="134" viewBox="0 0 134 134" fill="none" xmlns="http://www.w3.org/2000/svg">
<path d="M60.0208 90.7293L47.4583 85.0064C46.9 84.7272 46.6208 84.3084 46.6208 83.7501C46.6208 83.1918 46.9 82.773 47.4583 82.4939L60.0208 76.7709L65.7438 64.2084C66.0229 63.6501 66.4417 63.3709 67 63.3709C67.5583 63.3709 67.9771 63.6501 68.2563 64.2084L73.9792 76.7709L86.5417 82.4939C87.1 82.773 87.3792 83.1918 87.3792 83.7501C87.3792 84.3084 87.1 84.7272 86.5417 85.0064L73.9792 90.7293L68.2563 103.292C67.9771 103.85 67.5583 104.129 67 104.129C66.4417 104.129 66.0229 103.85 65.7438 103.292L60.0208 90.7293ZM27.9167 122.833C24.8458 122.833 22.2161 121.739 20.0274 119.55C17.8388 117.362 16.7463 114.734 16.75 111.667V33.5001C16.75 30.4293 17.8443 27.7995 20.033 25.6109C22.2217 23.4222 24.8496 22.3297 27.9167 22.3334H33.5V16.7501C33.5 15.1682 34.036 13.8412 35.108 12.7692C36.18 11.6972 37.5051 11.163 39.0833 11.1668C40.6653 11.1668 41.9923 11.7028 43.0643 12.7748C44.1363 13.8468 44.6704 15.1719 44.6667 16.7501V22.3334H89.3333V16.7501C89.3333 15.1682 89.8693 13.8412 90.9413 12.7692C92.0133 11.6972 93.3384 11.163 94.9167 11.1668C96.4986 11.1668 97.8256 11.7028 98.8976 12.7748C99.9696 13.8468 100.504 15.1719 100.5 16.7501V22.3334H106.083C109.154 22.3334 111.784 23.4278 113.973 25.6164C116.161 27.8051 117.254 30.433 117.25 33.5001V111.667C117.25 114.738 116.156 117.367 113.967 119.556C111.778 121.745 109.15 122.837 106.083 122.833H27.9167ZM27.9167 111.667H106.083V55.8334H27.9167V111.667ZM27.9167 44.6668H106.083V33.5001H27.9167V44.6668Z" fill="#414141"/>
</svg>
