<svg width="27" height="24" viewBox="0 0 27 24" fill="none" xmlns="http://www.w3.org/2000/svg">
<path d="M11.9181 23.5259L0.476752 13.0963C0.303398 12.9382 0.180315 12.7671 0.107507 12.5827C0.0346976 12.3983 -0.00112861 12.2008 2.70869e-05 11.9901C2.70869e-05 11.7794 0.0364319 11.5819 0.109241 11.3975C0.18205 11.2131 0.304553 11.0419 0.476752 10.8839L11.9181 0.454263C12.236 0.164551 12.6335 0.0133737 13.1108 0.000731694C13.5881 -0.0119103 13.9996 0.139267 14.3451 0.454263C14.6918 0.743976 14.8727 1.10638 14.8877 1.54148C14.9027 1.97657 14.7363 2.35162 14.3885 2.66661L5.89408 10.4098H25.2664C25.7576 10.4098 26.1696 10.5615 26.5025 10.865C26.8353 11.1684 27.0012 11.5434 27 11.9901C27 12.4378 26.8342 12.8134 26.5025 13.1168C26.1708 13.4202 25.7588 13.5714 25.2664 13.5703H5.89408L14.3885 21.3136C14.7063 21.6033 14.8727 21.972 14.8877 22.4198C14.9027 22.8675 14.7363 23.2362 14.3885 23.5259C14.0706 23.842 13.6661 24 13.175 24C12.6838 24 12.2649 23.842 11.9181 23.5259Z" fill="#005A9B"/>
</svg>
