<svg width="211" height="32" viewBox="0 0 211 32" fill="none" xmlns="http://www.w3.org/2000/svg">
<path d="M0.90625 24V0.5625H9.57812C12.099 0.5625 14.0521 1.09896 15.4375 2.17188C16.8333 3.23438 17.5312 4.72917 17.5312 6.65625C17.5312 7.83333 17.2552 8.875 16.7031 9.78125C16.151 10.6771 15.4062 11.3594 14.4688 11.8281C15.8021 12.224 16.8385 12.9062 17.5781 13.875C18.3281 14.8333 18.7031 16.0104 18.7031 17.4062C18.7031 18.7396 18.375 19.901 17.7188 20.8906C17.0729 21.8698 16.1562 22.6354 14.9688 23.1875C13.7917 23.7292 12.4062 24 10.8125 24H0.90625ZM5.71875 10.375H9.3125C10.3854 10.375 11.2344 10.1198 11.8594 9.60938C12.4844 9.09896 12.7969 8.40625 12.7969 7.53125C12.7969 6.67708 12.4792 6.00521 11.8438 5.51562C11.2188 5.01562 10.349 4.76562 9.23438 4.76562H5.71875V10.375ZM5.71875 19.7969H9.60938C10.4635 19.7969 11.2031 19.6771 11.8281 19.4375C12.4531 19.1875 12.9323 18.8385 13.2656 18.3906C13.6094 17.9323 13.7812 17.401 13.7812 16.7969C13.7812 16.1927 13.625 15.6771 13.3125 15.25C13.0104 14.8229 12.5677 14.5 11.9844 14.2812C11.401 14.0521 10.7083 13.9375 9.90625 13.9375H5.71875V19.7969ZM29.0469 24.3125C27.4427 24.3125 26.0052 23.9635 24.7344 23.2656C23.4635 22.5573 22.4635 21.5938 21.7344 20.375C21.0156 19.1458 20.6562 17.75 20.6562 16.1875C20.6562 14.6354 21.0156 13.25 21.7344 12.0312C22.4635 10.8021 23.4635 9.83333 24.7344 9.125C26.0052 8.41667 27.4427 8.0625 29.0469 8.0625C30.651 8.0625 32.0781 8.41667 33.3281 9.125C34.5885 9.83333 35.5781 10.8021 36.2969 12.0312C37.026 13.25 37.3906 14.6354 37.3906 16.1875C37.3906 17.75 37.026 19.1458 36.2969 20.375C35.5781 21.5938 34.5885 22.5573 33.3281 23.2656C32.0781 23.9635 30.651 24.3125 29.0469 24.3125ZM29.0312 20.2969C29.75 20.2969 30.3906 20.1198 30.9531 19.7656C31.526 19.401 31.974 18.9115 32.2969 18.2969C32.6302 17.6719 32.7969 16.9583 32.7969 16.1562C32.7969 15.3854 32.6302 14.6927 32.2969 14.0781C31.974 13.4635 31.526 12.9792 30.9531 12.625C30.3906 12.2604 29.75 12.0781 29.0312 12.0781C28.3021 12.0781 27.651 12.2604 27.0781 12.625C26.5156 12.9792 26.0677 13.4635 25.7344 14.0781C25.4115 14.6927 25.25 15.3854 25.25 16.1562C25.25 16.9583 25.4115 17.6719 25.7344 18.2969C26.0677 18.9115 26.5156 19.401 27.0781 19.7656C27.651 20.1198 28.3021 20.2969 29.0312 20.2969ZM47.6719 24.3125C46.0677 24.3125 44.6302 23.9635 43.3594 23.2656C42.0885 22.5573 41.0885 21.5938 40.3594 20.375C39.6406 19.1458 39.2812 17.75 39.2812 16.1875C39.2812 14.6354 39.6406 13.25 40.3594 12.0312C41.0885 10.8021 42.0885 9.83333 43.3594 9.125C44.6302 8.41667 46.0677 8.0625 47.6719 8.0625C49.276 8.0625 50.7031 8.41667 51.9531 9.125C53.2135 9.83333 54.2031 10.8021 54.9219 12.0312C55.651 13.25 56.0156 14.6354 56.0156 16.1875C56.0156 17.75 55.651 19.1458 54.9219 20.375C54.2031 21.5938 53.2135 22.5573 51.9531 23.2656C50.7031 23.9635 49.276 24.3125 47.6719 24.3125ZM47.6562 20.2969C48.375 20.2969 49.0156 20.1198 49.5781 19.7656C50.151 19.401 50.599 18.9115 50.9219 18.2969C51.2552 17.6719 51.4219 16.9583 51.4219 16.1562C51.4219 15.3854 51.2552 14.6927 50.9219 14.0781C50.599 13.4635 50.151 12.9792 49.5781 12.625C49.0156 12.2604 48.375 12.0781 47.6562 12.0781C46.9271 12.0781 46.276 12.2604 45.7031 12.625C45.1406 12.9792 44.6927 13.4635 44.3594 14.0781C44.0365 14.6927 43.875 15.3854 43.875 16.1562C43.875 16.9583 44.0365 17.6719 44.3594 18.2969C44.6927 18.9115 45.1406 19.401 45.7031 19.7656C46.276 20.1198 46.9271 20.2969 47.6562 20.2969ZM63.3594 24H58.875V0.5625H63.3594V14.9688L64.8906 13.125L69.3906 8.375H75L68.3906 15.3281L75.7812 24H69.9844L65.3125 18.1406L63.3594 19.9219V24ZM103.109 24H98.2969V7.4375L92.4375 20.0625H88.7188L82.875 7.48438V24H78.0625V0.5625H84.1719L90.5781 14.7188L96.9844 0.5625H103.109V24ZM115.078 31.8125H110.297L113.547 23.9844L105.656 8.375H110.719L115.672 18.875L120.016 8.375H124.781L115.078 31.8125ZM141.516 22.25C139.578 23.625 137.458 24.3125 135.156 24.3125C133.448 24.3125 131.911 23.9479 130.547 23.2188C129.193 22.4792 128.12 21.4792 127.328 20.2188C126.547 18.9583 126.156 17.5365 126.156 15.9531C126.156 14.4427 126.51 13.0938 127.219 11.9062C127.938 10.7188 128.911 9.78125 130.141 9.09375C131.37 8.40625 132.766 8.0625 134.328 8.0625C135.943 8.0625 137.365 8.44271 138.594 9.20312C139.823 9.95312 140.781 11.0052 141.469 12.3594C142.156 13.7031 142.5 15.2604 142.5 17.0312V17.5312H130.984C131.172 18.1458 131.479 18.6875 131.906 19.1562C132.333 19.6146 132.865 19.9792 133.5 20.25C134.135 20.5208 134.865 20.6562 135.688 20.6562C137.281 20.6562 138.766 20.1406 140.141 19.1094L141.516 22.25ZM130.781 15.25H138.359C138.276 14.5729 138.062 13.9792 137.719 13.4688C137.385 12.9479 136.943 12.5417 136.391 12.25C135.849 11.9583 135.24 11.8125 134.562 11.8125C133.875 11.8125 133.26 11.9635 132.719 12.2656C132.188 12.5677 131.755 12.974 131.422 13.4844C131.089 13.9948 130.875 14.5833 130.781 15.25ZM160.719 8.375L154.344 24H150L143.625 8.375H148.422L152.188 19.4688L155.953 8.375H160.719ZM177.203 22.25C175.266 23.625 173.146 24.3125 170.844 24.3125C169.135 24.3125 167.599 23.9479 166.234 23.2188C164.88 22.4792 163.807 21.4792 163.016 20.2188C162.234 18.9583 161.844 17.5365 161.844 15.9531C161.844 14.4427 162.198 13.0938 162.906 11.9062C163.625 10.7188 164.599 9.78125 165.828 9.09375C167.057 8.40625 168.453 8.0625 170.016 8.0625C171.63 8.0625 173.052 8.44271 174.281 9.20312C175.51 9.95312 176.469 11.0052 177.156 12.3594C177.844 13.7031 178.188 15.2604 178.188 17.0312V17.5312H166.672C166.859 18.1458 167.167 18.6875 167.594 19.1562C168.021 19.6146 168.552 19.9792 169.188 20.25C169.823 20.5208 170.552 20.6562 171.375 20.6562C172.969 20.6562 174.453 20.1406 175.828 19.1094L177.203 22.25ZM166.469 15.25H174.047C173.964 14.5729 173.75 13.9792 173.406 13.4688C173.073 12.9479 172.63 12.5417 172.078 12.25C171.536 11.9583 170.927 11.8125 170.25 11.8125C169.562 11.8125 168.948 11.9635 168.406 12.2656C167.875 12.5677 167.443 12.974 167.109 13.4844C166.776 13.9948 166.562 14.5833 166.469 15.25ZM196.625 24H192.141V16C192.141 14.7812 191.849 13.8281 191.266 13.1406C190.693 12.4427 189.906 12.0938 188.906 12.0938C187.865 12.0938 187.036 12.4583 186.422 13.1875C185.818 13.9062 185.516 14.8854 185.516 16.125V24H181.031V8.375H184.656L184.812 10.875C185.375 9.95833 186.109 9.26042 187.016 8.78125C187.922 8.30208 188.99 8.0625 190.219 8.0625C192.208 8.0625 193.771 8.67708 194.906 9.90625C196.052 11.125 196.625 12.8125 196.625 14.9688V24ZM210.734 23.5938C209.536 24.0729 208.375 24.3125 207.25 24.3125C206.083 24.3125 205.052 24.0677 204.156 23.5781C203.271 23.0781 202.578 22.3854 202.078 21.5C201.578 20.6042 201.328 19.5729 201.328 18.4062V12.375H198.594V8.375H201.562V4.46875H205.812V8.375H210.141V12.375H205.812V17.5938C205.812 18.4479 206.047 19.1146 206.516 19.5938C206.984 20.0625 207.568 20.2969 208.266 20.2969C208.901 20.2969 209.521 20.099 210.125 19.7031L210.734 23.5938Z" fill="#005A9B"/>
</svg>
