<svg width="56" height="56" viewBox="0 0 56 56" fill="none" xmlns="http://www.w3.org/2000/svg">
<path d="M28.0003 51.3333C24.7725 51.3333 21.7392 50.7204 18.9003 49.4946C16.0614 48.2688 13.592 46.6067 11.492 44.5083C9.39199 42.4083 7.72988 39.9388 6.50566 37.1C5.28144 34.2611 4.66855 31.2277 4.66699 28C4.66699 24.7722 5.27988 21.7388 6.50566 18.9C7.73144 16.0611 9.39355 13.5916 11.492 11.4916C13.592 9.39163 16.0614 7.72952 18.9003 6.50529C21.7392 5.28107 24.7725 4.66818 28.0003 4.66663C31.2281 4.66663 34.2614 5.27952 37.1003 6.50529C39.9392 7.73107 42.4087 9.39318 44.5087 11.4916C46.6087 13.5916 48.2715 16.0611 49.4973 18.9C50.7231 21.7388 51.3352 24.7722 51.3337 28C51.3337 31.2277 50.7208 34.2611 49.495 37.1C48.2692 39.9388 46.6071 42.4083 44.5087 44.5083C42.4087 46.6083 39.9392 48.2712 37.1003 49.497C34.2614 50.7227 31.2281 51.3348 28.0003 51.3333ZM28.467 30.3333L26.367 32.4333C25.9392 32.8611 25.7253 33.4055 25.7253 34.0666C25.7253 34.7277 25.9392 35.2722 26.367 35.7C26.7948 36.1277 27.3392 36.3416 28.0003 36.3416C28.6614 36.3416 29.2059 36.1277 29.6337 35.7L35.7003 29.6333C36.167 29.1666 36.4003 28.6222 36.4003 28C36.4003 27.3777 36.167 26.8333 35.7003 26.3666L29.6337 20.3C29.2059 19.8722 28.6614 19.6583 28.0003 19.6583C27.3392 19.6583 26.7948 19.8722 26.367 20.3C25.9392 20.7277 25.7253 21.2722 25.7253 21.9333C25.7253 22.5944 25.9392 23.1388 26.367 23.5666L28.467 25.6666H21.0003C20.3392 25.6666 19.7847 25.8906 19.3367 26.3386C18.8887 26.7866 18.6654 27.3404 18.667 28C18.667 28.6611 18.891 29.2156 19.339 29.6636C19.787 30.1116 20.3408 30.3348 21.0003 30.3333H28.467Z" fill="#005A9B"/>
</svg>
