<svg width="32" height="32" viewBox="0 0 32 32" fill="none" xmlns="http://www.w3.org/2000/svg">
<path d="M29.7296 23.573C24.7742 21.1734 23.9844 17.4686 23.9492 17.1938C23.9067 16.861 23.8585 16.5993 24.2256 16.2607C24.5796 15.9336 26.1502 14.9612 26.586 14.6569C27.3063 14.1531 27.6235 13.6502 27.3897 13.0319C27.2261 12.6042 26.828 12.4431 26.4086 12.4431C26.2762 12.4435 26.1444 12.4583 26.0153 12.4872C25.2239 12.659 24.4553 13.0556 24.0106 13.1627C23.9571 13.1765 23.9022 13.1839 23.847 13.1848C23.6099 13.1848 23.52 13.0793 23.5429 12.7939C23.5985 11.9286 23.7162 10.2398 23.5797 8.66221C23.3925 6.49168 22.6926 5.41623 21.8628 4.46509C21.4613 4.00383 19.5972 2.02222 15.9998 2.02222C12.4024 2.02222 10.5408 4.00383 10.1418 4.45936C9.30949 5.4105 8.61045 6.48595 8.42486 8.65648C8.28832 10.2341 8.41096 11.9221 8.46165 12.7882C8.478 13.0597 8.39461 13.1791 8.15751 13.1791C8.10233 13.1782 8.04744 13.1707 7.99399 13.157C7.55004 13.0499 6.7815 12.6532 5.99008 12.4815C5.86098 12.4525 5.72912 12.4377 5.59682 12.4373C5.17576 12.4373 4.77923 12.6009 4.61571 13.0262C4.38188 13.6445 4.69747 14.1474 5.42022 14.6512C5.85599 14.9554 7.42658 15.927 7.7806 16.255C8.14688 16.5936 8.09946 16.8553 8.05694 17.1881C8.02179 17.467 7.23118 21.1718 2.27659 23.5672C1.98634 23.7079 1.49252 24.0056 2.36325 24.4865C3.73026 25.2421 4.64024 25.1612 5.34745 25.6167C5.94756 26.0036 5.59273 26.8377 6.02932 27.1387C6.56566 27.5092 8.15097 27.1125 10.199 27.7889C11.916 28.3548 12.9592 29.9537 16.0039 29.9537C19.0486 29.9537 20.1221 28.3475 21.8088 27.7889C23.8528 27.1125 25.4413 27.5092 25.9785 27.1387C26.4143 26.8377 26.0603 26.0036 26.6604 25.6167C27.3676 25.1612 28.2767 25.2421 29.6446 24.4865C30.5137 24.0113 30.0198 23.7136 29.7296 23.573Z" fill="white"/>
<path d="M31.8854 23.2906C31.663 22.6854 31.2395 22.3615 30.7571 22.0933C30.6663 22.0401 30.5829 21.9976 30.5118 21.9649C30.3679 21.8904 30.2207 21.8185 30.0744 21.7424C28.5708 20.945 27.3968 19.9391 26.5825 18.7467C26.3512 18.411 26.1506 18.0552 25.9832 17.6835C25.9137 17.4848 25.917 17.3719 25.9668 17.2689C26.0163 17.1895 26.0817 17.1212 26.159 17.0685C26.4173 16.8976 26.6839 16.7242 26.8645 16.6072C27.1867 16.3987 27.4418 16.2335 27.6061 16.1165C28.2234 15.6847 28.6551 15.2259 28.9249 14.7131C29.1131 14.3589 29.2229 13.9682 29.2467 13.5677C29.2706 13.1672 29.2079 12.7662 29.063 12.3921C28.6542 11.3159 27.638 10.6477 26.4067 10.6477C26.147 10.6474 25.888 10.6749 25.6341 10.7295C25.5662 10.7442 25.4983 10.7597 25.4321 10.7769C25.4436 10.0409 25.4272 9.26391 25.3618 8.49924C25.1296 5.81102 24.1886 4.40189 23.2075 3.27819C22.5792 2.57403 21.8392 1.97829 21.0171 1.51494C19.5283 0.664391 17.84 0.232574 15.9996 0.232574C14.1592 0.232574 12.4791 0.664391 10.9886 1.51494C10.1646 1.97843 9.42303 2.57536 8.79418 3.28146C7.81307 4.40516 6.87203 5.81674 6.63983 8.50251C6.57443 9.26718 6.55807 10.0482 6.5687 10.7802C6.50248 10.763 6.43544 10.7475 6.36758 10.7327C6.11367 10.6781 5.85467 10.6507 5.59495 10.651C4.36285 10.651 3.34495 11.3191 2.93779 12.3954C2.79225 12.7697 2.72898 13.1709 2.75225 13.5718C2.77553 13.9727 2.88482 14.364 3.07269 14.7189C3.34331 15.2316 3.775 15.6904 4.39228 16.1223C4.5558 16.2368 4.8117 16.402 5.13383 16.613C5.30798 16.7258 5.56225 16.891 5.81162 17.0562C5.89886 17.1127 5.97302 17.1871 6.0291 17.2746C6.08142 17.3817 6.08306 17.497 6.00539 17.7097C5.84018 18.0735 5.64291 18.4219 5.4159 18.7508C4.61957 19.9162 3.47985 20.9041 2.02454 21.695C1.25356 22.1039 0.452319 22.3771 0.113837 23.2971C-0.141251 23.9915 0.0255369 24.7815 0.673885 25.4472C0.911834 25.6957 1.18782 25.9047 1.49147 26.0663C2.1233 26.4136 2.79515 26.6825 3.49212 26.867C3.63594 26.9041 3.77249 26.9652 3.896 27.0477C4.13229 27.2546 4.09877 27.5662 4.41354 28.0226C4.57155 28.2584 4.77232 28.4626 5.00547 28.6245C5.66609 29.0808 6.40846 29.1095 7.19498 29.1397C7.90546 29.1667 8.71079 29.1978 9.63058 29.5012C10.0116 29.6271 10.4073 29.8709 10.866 30.1555C11.9672 30.8326 13.4749 31.7592 15.998 31.7592C18.521 31.7592 20.0393 30.8277 21.1488 30.1481C21.6042 29.8684 21.9974 29.6271 22.3678 29.5045C23.2876 29.2002 24.0929 29.17 24.8034 29.143C25.5899 29.1127 26.3323 29.0841 26.9929 28.6278C27.269 28.4352 27.4991 28.1838 27.6666 27.8917C27.8931 27.5065 27.8873 27.2374 28.0999 27.0493C28.2158 26.9707 28.344 26.9121 28.4793 26.876C29.1858 26.6909 29.8668 26.4195 30.5069 26.0679C30.8295 25.8948 31.1199 25.6674 31.3654 25.3957L31.3735 25.3859C31.9818 24.7349 32.1347 23.9677 31.8854 23.2906ZM29.6427 24.4961C28.2749 25.2517 27.3657 25.1708 26.6585 25.6263C26.0576 26.0131 26.4132 26.8473 25.9766 27.1483C25.4403 27.5188 23.855 27.1221 21.8069 27.7985C20.1178 28.3571 19.0402 29.9633 16.002 29.9633C12.9639 29.9633 11.9116 28.3603 10.1947 27.7944C8.15074 27.118 6.56216 27.5147 6.02501 27.1442C5.58923 26.8432 5.94325 26.0091 5.34314 25.6222C4.63511 25.1667 3.72595 25.2477 2.35894 24.4961C1.4882 24.0152 1.98203 23.7175 2.27227 23.5768C7.22686 21.1773 8.01747 17.4725 8.05263 17.1977C8.09514 16.8649 8.14256 16.6031 7.77628 16.2646C7.42227 15.9374 5.85168 14.965 5.4159 14.6608C4.69479 14.157 4.37756 13.654 4.61139 13.0358C4.77491 12.608 5.1739 12.4469 5.5925 12.4469C5.7248 12.4473 5.85667 12.4621 5.98576 12.4911C6.77719 12.6628 7.54572 13.0595 7.98967 13.1666C8.04313 13.1803 8.09801 13.1877 8.15319 13.1887C8.39029 13.1887 8.47369 13.0693 8.45734 12.7978C8.40664 11.9317 8.28401 10.2437 8.42054 8.66607C8.60777 6.49554 9.30681 5.42009 10.1375 4.46895C10.5365 4.01178 12.4112 2.03017 15.9963 2.03017C19.5815 2.03017 21.4611 4.00361 21.8601 4.45914C22.6916 5.41028 23.3914 6.48573 23.577 8.65626C23.7135 10.2339 23.5958 11.9227 23.5402 12.788C23.5214 13.0734 23.6073 13.1789 23.8444 13.1789C23.8996 13.178 23.9544 13.1706 24.0079 13.1568C24.4527 13.0497 25.2212 12.653 26.0126 12.4813C26.1417 12.4523 26.2736 12.4375 26.4059 12.4371C26.8269 12.4371 27.2235 12.6007 27.387 13.0259C27.6208 13.6442 27.3052 14.1472 26.5833 14.651C26.1475 14.9552 24.5769 15.9268 24.2229 16.2548C23.8558 16.5933 23.904 16.855 23.9466 17.1879C23.9817 17.4668 24.7715 21.1716 29.7269 23.567C30.0196 23.7134 30.5134 24.0111 29.6427 24.4961Z" fill="#005A9B" fill-opacity="0.8"/>
</svg>
