<svg width="32" height="32" viewBox="0 0 32 32" fill="none" xmlns="http://www.w3.org/2000/svg">
<path d="M22.9019 11.5513C24.9597 13.0275 27.4806 13.8961 30.2033 13.8961V8.63814C29.688 8.63825 29.174 8.58432 28.6699 8.47714V12.6159C25.9474 12.6159 23.4269 11.7473 21.3685 10.2712V21.0012C21.3685 26.3688 17.0326 30.7199 11.6844 30.7199C9.68879 30.7199 7.83399 30.1144 6.29321 29.0761C8.05176 30.8805 10.5042 32 13.2174 32C18.566 32 22.9021 27.6489 22.9021 22.281V11.5513H22.9019ZM24.7934 6.24665C23.7418 5.09362 23.0513 3.60356 22.9019 1.95622V1.27994H21.4488C21.8146 3.3737 23.0621 5.16248 24.7934 6.24665ZM9.676 24.9571C9.08843 24.1839 8.77091 23.2381 8.77233 22.2656C8.77233 19.8107 10.7555 17.8202 13.2023 17.8202C13.6583 17.82 14.1115 17.8901 14.5461 18.0285V12.653C14.0382 12.5832 13.5257 12.5535 13.0134 12.5644V16.7484C12.5785 16.61 12.125 16.5397 11.6689 16.5402C9.2222 16.5402 7.2391 18.5305 7.2391 20.9858C7.2391 22.7218 8.23037 24.2249 9.676 24.9571Z" fill="white"/>
<path d="M21.3686 10.2711C23.427 11.7472 25.9475 12.6158 28.67 12.6158V8.47703C27.1503 8.15217 25.805 7.35519 24.7935 6.24665C23.0621 5.16237 21.8147 3.37359 21.4489 1.27994H17.6321V22.2808C17.6235 24.7291 15.6437 26.7115 13.2022 26.7115C11.7634 26.7115 10.4853 26.0232 9.67577 24.9571C8.23025 24.2249 7.23897 22.7217 7.23897 20.9859C7.23897 18.5308 9.22207 16.5403 11.6688 16.5403C12.1376 16.5403 12.5894 16.6135 13.0133 16.7485V12.5645C7.75895 12.6734 3.5332 16.982 3.5332 22.2809C3.5332 24.9261 4.58551 27.3241 6.29342 29.0762C7.8342 30.1144 9.689 30.72 11.6846 30.72C17.0329 30.72 21.3687 26.3687 21.3687 21.0012V10.2711H21.3686Z" fill="white"/>
</svg>
